mtllib corn2.mtl
o Matrix_6
g Matrix_6
usemtl corn2_AtlasMaterial
v -6.0 1.0 -6.0
v -6.0 1.0 2.0
v -3.0 1.0 2.0
v -3.0 1.0 -6.0
v -1.0 1.0 -6.0
v -1.0 1.0 1.0
v 1.0 1.0 1.0
v 1.0 1.0 -6.0
v 3.0 1.0 -6.0
v 3.0 1.0 -2.0
v 6.0 1.0 -2.0
v 6.0 1.0 -6.0
v -3.0 1.0 -3.0
v -1.0 1.0 -3.0
v -3.0 1.0 -2.0
v -3.0 1.0 6.0
v -2.0 1.0 6.0
v -2.0 1.0 -2.0
v -2.0 1.0 -3.0
v -2.0 1.0 5.0
v -1.0 1.0 5.0
v 6.0 1.0 6.0
v 6.0 1.0 5.0
v -1.0 1.0 4.0
v 6.0 1.0 4.0
v 1.0 1.0 -4.0
v 1.0 1.0 2.0
v 2.0 1.0 2.0
v 2.0 1.0 -4.0
v 2.0 1.0 -1.0
v 4.0 1.0 2.0
v 4.0 1.0 -1.0
v 4.0 1.0 -2.0
v 6.0 1.0 2.0
v -6.0 1.0 6.0
v -5.0 1.0 6.0
v -5.0 1.0 2.0
v 0.0 1.0 3.0
v 0.0 1.0 4.0
v 4.0 1.0 4.0
v 4.0 1.0 3.0
v 1.0 1.0 3.0
v 5.0 1.0 3.0
v 5.0 1.0 2.0
v 2.0 1.0 -5.0
v 3.0 1.0 -1.0
v 3.0 1.0 -5.0
v -5.0 1.0 3.0
v -3.0 1.0 3.0
v -5.0 1.0 5.0
v -3.0 1.0 5.0
v -4.0 1.0 3.0
v -4.0 1.0 5.0
v -1.0 1.0 2.0
v 0.0 1.0 2.0
v 0.0 1.0 1.0
v 1.0 1.0 -5.0
v 5.0 1.0 4.0
v -5.0 2.0 3.0
v -5.0 2.0 4.0
v -4.0 2.0 4.0
v -4.0 2.0 3.0
v -5.0 5.0 4.0
v -5.0 5.0 5.0
v -4.0 5.0 5.0
v -4.0 5.0 4.0
v -4.0 6.0 -3.0
v -4.0 6.0 -2.0
v -3.0 6.0 -2.0
v -3.0 6.0 -3.0
v -3.0 4.0 -2.0
v -3.0 4.0 -1.0
v -2.0 4.0 -1.0
v -2.0 4.0 -2.0
v -3.0 7.0 -3.0
v -3.0 7.0 -2.0
v -2.0 7.0 -2.0
v -2.0 7.0 -3.0
v -1.0 4.0 1.0
v -1.0 4.0 2.0
v 0.0 4.0 2.0
v 0.0 4.0 1.0
v 1.0 5.0 -5.0
v 1.0 5.0 -4.0
v 2.0 5.0 -4.0
v 2.0 5.0 -5.0
v 3.0 3.0 3.0
v 3.0 3.0 4.0
v 4.0 3.0 4.0
v 4.0 3.0 3.0
v 3.0 5.0 -3.0
v 3.0 5.0 -2.0
v 4.0 5.0 -2.0
v 4.0 5.0 -3.0
v 3.0 8.0 -2.0
v 3.0 8.0 -1.0
v 4.0 8.0 -1.0
v 4.0 8.0 -2.0
v 4.0 6.0 3.0
v 4.0 6.0 4.0
v 5.0 6.0 4.0
v 5.0 6.0 3.0
v -6.0 0.0 6.0
v -6.0 0.0 -6.0
v 6.0 0.0 -6.0
v 6.0 0.0 6.0
v -4.0 5.0 -2.0
v -4.0 5.0 -3.0
v -3.0 5.0 -3.0
v -3.0 5.0 -2.0
v -3.0 3.0 -1.0
v -3.0 3.0 -2.0
v -2.0 3.0 -2.0
v -2.0 3.0 -1.0
v 3.0 2.0 4.0
v 3.0 2.0 3.0
v 4.0 2.0 3.0
v 4.0 2.0 4.0
v 3.0 4.0 -2.0
v 3.0 4.0 -3.0
v 4.0 4.0 -3.0
v 4.0 4.0 -2.0
v -5.0 2.0 5.0
v -3.0 3.0 -3.0
v -3.0 4.0 -3.0
v -4.0 2.0 5.0
v -2.0 4.0 -3.0
v -2.0 3.0 -3.0
v -2.0 5.0 -3.0
v 5.0 3.0 3.0
v -2.0 6.0 -3.0
v 5.0 2.0 3.0
v 5.0 3.0 4.0
v -2.0 5.0 -2.0
v -2.0 6.0 -2.0
v 5.0 2.0 4.0
vn 0.0 1.0 0.0
vn 0.0 -1.0 0.0
vn -1.0 0.0 0.0
vn 1.0 0.0 0.0
vn 0.0 0.0 -1.0
vn 0.0 0.0 1.0
vt 0.015625 0.40625
vt 0.015625 0.03125
vt 0.203125 0.03125
vt 0.203125 0.40625
vt 0.234375 0.28125
vt 0.234375 0.03125
vt 0.28125 0.03125
vt 0.28125 0.28125
vt 0.3125 0.28125
vt 0.3125 0.03125
vt 0.328125 0.03125
vt 0.328125 0.28125
vt 0.359375 0.28125
vt 0.359375 0.03125
vt 0.375 0.03125
vt 0.375 0.28125
vt 0.40625 0.25
vt 0.40625 0.03125
vt 0.4375 0.03125
vt 0.4375 0.25
vt 0.46875 0.25
vt 0.46875 0.03125
vt 0.484375 0.03125
vt 0.484375 0.25
vt 0.515625 0.25
vt 0.515625 0.03125
vt 0.53125 0.03125
vt 0.53125 0.25
vt 0.5625 0.25
vt 0.5625 0.03125
vt 0.578125 0.03125
vt 0.578125 0.25
vt 0.609375 0.21875
vt 0.609375 0.03125
vt 0.625 0.03125
vt 0.625 0.21875
vt 0.65625 0.1875
vt 0.65625 0.03125
vt 0.671875 0.03125
vt 0.671875 0.1875
vt 0.703125 0.15625
vt 0.703125 0.03125
vt 0.75 0.03125
vt 0.75 0.15625
vt 0.78125 0.15625
vt 0.78125 0.03125
vt 0.8125 0.03125
vt 0.8125 0.15625
vt 0.84375 0.15625
vt 0.84375 0.03125
vt 0.859375 0.03125
vt 0.859375 0.15625
vt 0.890625 0.15625
vt 0.890625 0.03125
vt 0.90625 0.03125
vt 0.90625 0.15625
vt 0.9375 0.15625
vt 0.9375 0.03125
vt 0.953125 0.03125
vt 0.953125 0.15625
vt 0.015625 0.59375
vt 0.015625 0.46875
vt 0.03125 0.46875
vt 0.03125 0.59375
vt 0.0625 0.59375
vt 0.0625 0.46875
vt 0.078125 0.46875
vt 0.078125 0.59375
vt 0.109375 0.59375
vt 0.109375 0.46875
vt 0.125 0.46875
vt 0.125 0.59375
vt 0.15625 0.59375
vt 0.15625 0.46875
vt 0.171875 0.46875
vt 0.171875 0.59375
vt 0.203125 0.59375
vt 0.203125 0.46875
vt 0.21875 0.46875
vt 0.21875 0.59375
vt 0.25 0.5625
vt 0.25 0.46875
vt 0.28125 0.46875
vt 0.28125 0.5625
vt 0.3125 0.5625
vt 0.3125 0.46875
vt 0.34375 0.46875
vt 0.34375 0.5625
vt 0.375 0.5625
vt 0.375 0.46875
vt 0.390625 0.46875
vt 0.390625 0.5625
vt 0.421875 0.5625
vt 0.421875 0.46875
vt 0.4375 0.46875
vt 0.4375 0.5625
vt 0.46875 0.5625
vt 0.46875 0.46875
vt 0.484375 0.46875
vt 0.484375 0.5625
vt 0.515625 0.5625
vt 0.515625 0.46875
vt 0.53125 0.46875
vt 0.53125 0.5625
vt 0.5625 0.5625
vt 0.5625 0.46875
vt 0.578125 0.46875
vt 0.578125 0.5625
vt 0.609375 0.5625
vt 0.609375 0.46875
vt 0.625 0.46875
vt 0.625 0.5625
vt 0.65625 0.5625
vt 0.65625 0.46875
vt 0.671875 0.46875
vt 0.671875 0.5625
vt 0.703125 0.5625
vt 0.703125 0.46875
vt 0.71875 0.46875
vt 0.71875 0.5625
vt 0.75 0.5625
vt 0.75 0.46875
vt 0.765625 0.46875
vt 0.765625 0.5625
vt 0.796875 0.5625
vt 0.796875 0.46875
vt 0.8125 0.46875
vt 0.8125 0.5625
vt 0.84375 0.5625
vt 0.84375 0.46875
vt 0.859375 0.46875
vt 0.859375 0.5625
vt 0.890625 0.5625
vt 0.890625 0.46875
vt 0.90625 0.46875
vt 0.90625 0.5625
vt 0.9375 0.5625
vt 0.9375 0.46875
vt 0.953125 0.46875
vt 0.953125 0.5625
vt 0.234375 0.40625
vt 0.234375 0.34375
vt 0.25 0.34375
vt 0.25 0.40625
vt 0.28125 0.40625
vt 0.28125 0.34375
vt 0.296875 0.34375
vt 0.296875 0.40625
vt 0.328125 0.40625
vt 0.328125 0.34375
vt 0.34375 0.34375
vt 0.34375 0.40625
vt 0.375 0.40625
vt 0.375 0.34375
vt 0.390625 0.34375
vt 0.390625 0.40625
vt 0.421875 0.40625
vt 0.421875 0.34375
vt 0.4375 0.34375
vt 0.4375 0.40625
vt 0.46875 0.40625
vt 0.46875 0.34375
vt 0.484375 0.34375
vt 0.484375 0.40625
vt 0.515625 0.40625
vt 0.515625 0.34375
vt 0.53125 0.34375
vt 0.53125 0.40625
vt 0.5625 0.375
vt 0.5625 0.34375
vt 0.75 0.34375
vt 0.75 0.375
vt 0.78125 0.375
vt 0.78125 0.34375
vt 0.96875 0.34375
vt 0.96875 0.375
vt 0.015625 0.6875
vt 0.015625 0.65625
vt 0.203125 0.65625
vt 0.203125 0.6875
vt 0.234375 0.6875
vt 0.234375 0.65625
vt 0.421875 0.65625
vt 0.421875 0.6875
vt 0.453125 0.6875
vt 0.453125 0.65625
vt 0.578125 0.65625
vt 0.578125 0.6875
vt 0.609375 0.6875
vt 0.609375 0.65625
vt 0.71875 0.65625
vt 0.71875 0.6875
vt 0.75 0.6875
vt 0.75 0.65625
vt 0.8125 0.65625
vt 0.8125 0.6875
vt 0.84375 0.6875
vt 0.84375 0.65625
vt 0.90625 0.65625
vt 0.90625 0.6875
vt 0.9375 0.6875
vt 0.9375 0.65625
vt 0.96875 0.65625
vt 0.96875 0.6875
vt 0.015625 0.78125
vt 0.015625 0.75
vt 0.046875 0.75
vt 0.046875 0.78125
vt 0.078125 0.78125
vt 0.078125 0.75
vt 0.109375 0.75
vt 0.109375 0.78125
vt 0.140625 0.78125
vt 0.140625 0.75
vt 0.171875 0.75
vt 0.171875 0.78125
vt 0.203125 0.78125
vt 0.203125 0.75
vt 0.234375 0.75
vt 0.234375 0.78125
vt 0.265625 0.78125
vt 0.265625 0.75
vt 0.296875 0.75
vt 0.296875 0.78125
vt 0.328125 0.78125
vt 0.328125 0.75
vt 0.359375 0.75
vt 0.359375 0.78125
vt 0.390625 0.78125
vt 0.390625 0.75
vt 0.421875 0.75
vt 0.421875 0.78125
vt 0.453125 0.78125
vt 0.453125 0.75
vt 0.484375 0.75
vt 0.484375 0.78125
vt 0.515625 0.78125
vt 0.515625 0.75
vt 0.546875 0.75
vt 0.546875 0.78125
vt 0.578125 0.78125
vt 0.578125 0.75
vt 0.609375 0.75
vt 0.609375 0.78125
vt 0.640625 0.78125
vt 0.640625 0.75
vt 0.65625 0.75
vt 0.65625 0.78125
vt 0.6875 0.78125
vt 0.6875 0.75
vt 0.703125 0.75
vt 0.703125 0.78125
vt 0.734375 0.78125
vt 0.734375 0.75
vt 0.75 0.75
vt 0.75 0.78125
vt 0.78125 0.78125
vt 0.78125 0.75
vt 0.796875 0.75
vt 0.796875 0.78125
vt 0.828125 0.78125
vt 0.828125 0.75
vt 0.84375 0.75
vt 0.84375 0.78125
vt 0.875 0.78125
vt 0.875 0.75
vt 0.890625 0.75
vt 0.890625 0.78125
vt 0.921875 0.78125
vt 0.921875 0.75
vt 0.9375 0.75
vt 0.9375 0.78125
vt 0.96875 0.78125
vt 0.96875 0.75
vt 0.984375 0.75
vt 0.984375 0.78125
vt 0.015625 0.875
vt 0.015625 0.84375
vt 0.03125 0.84375
vt 0.03125 0.875
vt 0.0625 0.875
vt 0.0625 0.84375
vt 0.078125 0.84375
vt 0.078125 0.875
vt 0.109375 0.875
vt 0.109375 0.84375
vt 0.125 0.84375
vt 0.125 0.875
vt 0.15625 0.875
vt 0.15625 0.84375
vt 0.171875 0.84375
vt 0.171875 0.875
vt 0.203125 0.875
vt 0.203125 0.84375
vt 0.21875 0.84375
vt 0.21875 0.875
vt 0.25 0.875
vt 0.25 0.84375
vt 0.265625 0.84375
vt 0.265625 0.875
vt 0.296875 0.875
vt 0.296875 0.84375
vt 0.3125 0.84375
vt 0.3125 0.875
vt 0.34375 0.875
vt 0.34375 0.84375
vt 0.359375 0.84375
vt 0.359375 0.875
vt 0.390625 0.875
vt 0.390625 0.84375
vt 0.40625 0.84375
vt 0.40625 0.875
vt 0.4375 0.875
vt 0.4375 0.84375
vt 0.453125 0.84375
vt 0.453125 0.875
vt 0.484375 0.875
vt 0.484375 0.84375
vt 0.5 0.84375
vt 0.5 0.875
vt 0.53125 0.875
vt 0.53125 0.84375
vt 0.546875 0.84375
vt 0.546875 0.875
vt 0.578125 0.875
vt 0.578125 0.84375
vt 0.59375 0.84375
vt 0.59375 0.875
vt 0.625 0.875
vt 0.625 0.84375
vt 0.640625 0.84375
vt 0.640625 0.875
vt 0.671875 0.875
vt 0.671875 0.84375
vt 0.6875 0.84375
vt 0.6875 0.875
vt 0.71875 0.875
vt 0.71875 0.84375
vt 0.734375 0.84375
vt 0.734375 0.875
vt 0.765625 0.875
vt 0.765625 0.84375
vt 0.78125 0.84375
vt 0.78125 0.875
vt 0.8125 0.875
vt 0.8125 0.84375
vt 0.828125 0.84375
vt 0.828125 0.875
vt 0.859375 0.875
vt 0.859375 0.84375
vt 0.875 0.84375
vt 0.875 0.875
vt 0.90625 0.875
vt 0.90625 0.84375
vt 0.921875 0.84375
vt 0.921875 0.875
vt 0.953125 0.875
vt 0.953125 0.84375
vt 0.96875 0.84375
vt 0.96875 0.875
vt 0.015625 0.96875
vt 0.015625 0.9375
vt 0.03125 0.9375
vt 0.03125 0.96875
f 1/5/1 2/6/1 3/7/1 4/8/1
f 5/17/1 6/18/1 7/19/1 8/20/1
f 9/41/1 10/42/1 11/43/1 12/44/1
f 4/85/1 13/86/1 14/87/1 5/88/1
f 15/9/1 16/10/1 17/11/1 18/12/1
f 19/13/1 20/14/1 21/15/1 14/16/1
f 20/185/1 17/186/1 22/187/1 23/188/1
f 24/189/1 21/190/1 23/191/1 25/192/1
f 26/33/1 27/34/1 28/35/1 29/36/1
f 30/81/1 28/82/1 31/83/1 32/84/1
f 33/45/1 31/46/1 34/47/1 11/48/1
f 2/77/1 35/78/1 36/79/1 37/80/1
f 38/197/1 39/198/1 40/199/1 41/200/1
f 27/193/1 42/194/1 43/195/1 44/196/1
f 45/61/1 30/62/1 46/63/1 47/64/1
f 37/217/1 48/218/1 49/219/1 3/220/1
f 50/213/1 36/214/1 16/215/1 51/216/1
f 52/145/1 53/146/1 51/147/1 49/148/1
f 54/157/1 24/158/1 39/159/1 55/160/1
f 56/153/1 38/154/1 42/155/1 7/156/1
f 8/241/1 57/242/1 47/243/1 9/244/1
f 44/149/1 58/150/1 25/151/1 34/152/1
f 59/333/1 60/334/1 61/335/1 62/336/1
f 63/337/1 64/338/1 65/339/1 66/340/1
f 67/329/1 68/330/1 69/331/1 70/332/1
f 71/321/1 72/322/1 73/323/1 74/324/1
f 75/325/1 76/326/1 77/327/1 78/328/1
f 79/341/1 80/342/1 81/343/1 82/344/1
f 83/357/1 84/358/1 85/359/1 86/360/1
f 87/361/1 88/362/1 89/363/1 90/364/1
f 91/353/1 92/354/1 93/355/1 94/356/1
f 95/345/1 96/346/1 97/347/1 98/348/1
f 99/349/1 100/350/1 101/351/1 102/352/1
f 103/1/2 104/2/2 105/3/2 106/4/2
f 107/293/2 108/294/2 109/295/2 110/296/2
f 111/285/2 112/286/2 113/287/2 114/288/2
f 115/277/2 116/278/2 117/279/2 118/280/2
f 119/281/2 120/282/2 121/283/2 122/284/2
f 1/169/3 104/170/3 103/171/3 35/172/3
f 95/29/3 10/30/3 46/31/3 96/32/3
f 63/93/3 60/94/3 123/95/3 64/96/3
f 79/105/3 6/106/3 54/107/3 80/108/3
f 83/69/3 57/70/3 26/71/3 84/72/3
f 99/89/3 90/90/3 89/91/3 100/92/3
f 59/229/3 48/230/3 50/231/3 123/232/3
f 124/141/3 13/142/3 15/143/3 112/144/3
f 125/237/3 124/238/3 111/239/3 72/240/3
f 67/317/3 108/318/3 107/319/3 68/320/3
f 109/309/3 125/310/3 71/311/3 110/312/3
f 75/301/3 70/302/3 69/303/3 76/304/3
f 87/305/3 116/306/3 115/307/3 88/308/3
f 91/313/3 120/314/3 119/315/3 92/316/3
f 117/297/3 41/298/3 40/299/3 118/300/3
f 22/173/4 106/174/4 105/175/4 12/176/4
f 97/25/4 32/26/4 33/27/4 98/28/4
f 101/37/4 58/38/4 43/39/4 102/40/4
f 65/109/4 126/110/4 61/111/4 66/112/4
f 77/101/4 74/102/4 127/103/4 78/104/4
f 81/97/4 55/98/4 56/99/4 82/100/4
f 85/53/4 29/54/4 45/55/4 86/56/4
f 126/233/4 53/234/4 52/235/4 62/236/4
f 113/161/4 18/162/4 19/163/4 128/164/4
f 73/225/4 114/226/4 128/227/4 127/228/4
f 93/289/4 122/290/4 121/291/4 94/292/4
f 12/181/5 105/182/5 104/183/5 1/184/5
f 66/129/5 61/130/5 60/131/5 63/132/5
f 129/57/5 19/58/5 13/59/5 109/60/5
f 82/133/5 56/134/5 6/135/5 79/136/5
f 86/49/5 45/50/5 57/51/5 83/52/5
f 122/137/5 33/138/5 10/139/5 119/140/5
f 98/117/5 93/118/5 92/119/5 95/120/5
f 102/113/5 130/114/5 90/115/5 99/116/5
f 131/201/5 129/202/5 108/203/5 67/204/5
f 130/209/5 132/210/5 116/211/5 87/212/5
f 62/249/5 52/250/5 48/251/5 59/252/5
f 78/265/5 131/266/5 70/267/5 75/268/5
f 94/269/5 121/270/5 120/271/5 91/272/5
f 132/273/5 43/274/5 41/275/5 117/276/5
f 35/177/6 103/178/6 106/179/6 22/180/6
f 96/21/6 46/22/6 32/23/6 97/24/6
f 64/65/6 50/66/6 53/67/6 65/68/6
f 80/121/6 54/122/6 55/123/6 81/124/6
f 84/73/6 26/74/6 29/75/6 85/76/6
f 100/125/6 89/126/6 133/127/6 101/128/6
f 68/205/6 107/206/6 134/207/6 135/208/6
f 112/165/6 15/166/6 18/167/6 113/168/6
f 88/221/6 115/222/6 136/223/6 133/224/6
f 72/261/6 111/262/6 114/263/6 73/264/6
f 110/257/6 71/258/6 74/259/6 134/260/6
f 76/253/6 69/254/6 135/255/6 77/256/6
f 118/245/6 40/246/6 58/247/6 136/248/6
